<svg width="25" height="26" viewBox="0 0 25 26" fill="none" xmlns="http://www.w3.org/2000/svg">
<path d="M20.7 12.2C20.4 12.9 19.9 13.6 19.4 14.1C18.3 15.3 16.9 16.1 15.3 16.4C14.2 16.6 13.2 16.7 12.1 16.5C9.40001 16.2 7.30001 14.8 5.60001 12.6C4.40001 11.1 3.8 9.29999 3.8 7.39999C3.8 5.89999 4.20001 4.59999 5.10001 3.39999C5.40001 3.09999 5.69999 2.69999 5.89999 2.39999C5.39999 3.49999 5.2 4.69999 5.3 5.89999C5.4 7.49999 6 9 7 10.3C8.4 12.2 10.2 13.5 12.4 14.1C14.4 14.6 16.5 14.6 18.4 13.7C19.3 13.4 20 12.9 20.7 12.2C20.6 12.2 20.6 12.2 20.7 12.2Z" fill="#0968AC"/>
<path d="M21.1 7.8C20.6 9 19.8 9.9 18.7 10.5C17.6 11.1 16.5 11.2 15.3 11.2C13.3 11.1 11.7 10.2 10.4 8.7C9.3 7.5 8.8 6 8.9 4.3C8.9 3.5 9.20001 2.7 9.60001 2C9.80001 1.6 10.1 1.29999 10.4 0.899994C10.5 0.899994 10.4 1 10.4 1C9.7 2.7 9.90001 4.29999 10.8 5.89999C12 7.99999 13.8 9.2 16.1 9.5C17.8 9.7 19.3 9.4 20.6 8.2C20.7 8.2 20.9 8 21.1 7.8Z" fill="#0968AC"/>
<path d="M6.7 23.8C6.2 23.8 5.7 23.8 5.2 23.8C4.3 23.7 3.8 23.2 3.7 22.3C3.6 21.1 3.89999 20 4.89999 19.2C5.59999 18.6 6.9 18.5 7.7 18.9C8.4 19.3 8.7 20.1 8.6 20.9C8.5 21.5 8.3 22 8.1 22.6C8 22.8 8.1 22.8 8.3 22.8C8.7 22.8 8.7 22.8 8.6 23.2C8.4 23.9 8.4 23.9 7.8 23.9C7.3 23.8 7 23.8 6.7 23.8ZM6.2 22.8C6.3 22.8 6.5 22.8 6.6 22.8C6.8 22.8 6.79999 22.7 6.89999 22.6C6.99999 22.2 7.1 21.7 7.3 21.3C7.4 21 7.39999 20.8 7.39999 20.5C7.39999 20.2 7.3 20 7 19.8C6.5 19.5 5.69999 19.7 5.39999 20.2C4.99999 20.7 4.9 21.4 5 22C5 22.4 5.3 22.7 5.7 22.7C5.8 22.8 6 22.8 6.2 22.8Z" fill="#171E2B"/>
<path d="M15.4 22.2C15 22.2 14.6 22.2 14.2 22.2C14.1 22.2 14 22.3 14 22.4C14 22.7 14.1 22.8 14.4 22.8C14.6 22.8 14.7 22.8 14.9 22.8C15.4 22.8 15.8 22.8 16.3 22.8C16.5 22.8 16.5 22.8 16.5 23C16.4 23.2 16.4 23.4 16.4 23.7C16.4 23.8 16.3 23.9 16.2 23.9C15.5 23.9 14.9 23.9 14.2 23.9C14.1 23.9 13.9 23.9 13.8 23.8C13.2 23.6 12.9 23.3 12.9 22.7C12.9 22 13 21.3 13.4 20.6C13.8 19.9 14.4 19.7 15.1 19.7C15.3 19.7 15.6 19.7 15.8 19.7C16.5 19.8 16.9 20.2 16.9 21C16.9 21.3 16.8 21.7 16.7 22C16.7 22.1 16.6 22.2 16.5 22.2C16.2 22.2 15.8 22.2 15.4 22.2ZM15 21.3C15.2 21.3 15.4 21.3 15.6 21.3C15.7 21.3 15.8 21.3 15.8 21.2C15.8 21 15.8 20.9 15.7 20.8C15.3 20.5 14.5 20.7 14.4 21.2C14.3 21.3 14.4 21.4 14.5 21.4C14.7 21.3 14.9 21.3 15 21.3Z" fill="#171E2B"/>
<path d="M11 23.8C10.7 23.8 10.3 23.8 10 23.8C9.4 23.8 9.1 23.4 9 22.8C9 22.4 9.00001 22 9.10001 21.7C9.20001 21.1 9.3 20.6 9.5 20C9.5 19.8 9.6 19.8 9.8 19.8C10 19.8 10.3 19.8 10.5 19.8C10.6 19.8 10.7 19.8 10.6 20C10.5 20.7 10.3 21.4 10.2 22.1C10.2 22.3 10.1 22.4 10.2 22.6C10.2 22.8 10.4 22.9 10.6 23C10.8 23 11.1 23 11.3 23C11.5 23 11.5 22.9 11.5 22.8C11.6 22.1 11.8 21.5 11.9 20.8C11.9 20.6 12 20.4 12 20.1C12 19.9 12.1 19.8 12.3 19.9C12.5 19.9 12.7 19.9 12.9 19.9C13.1 19.9 13.1 19.9 13.1 20.1C13 20.8 12.8 21.4 12.7 22.1C12.6 22.6 12.5 23.2 12.4 23.7C12.4 23.9 12.3 24 12.1 24C11.6 23.8 11.3 23.8 11 23.8Z" fill="#171E2B"/>
<path d="M20.5 4.8C20.3 5.2 20.1 5.5 19.8 5.7C19.1 6.3 18.3 6.5 17.3 6.5C15.5 6.4 14.2 5.49999 13.5 3.89999C12.9 2.59999 13.1 1.30001 14.1 0.100006C14 0.400006 14 0.600003 13.9 0.800003C13.7 1.8 14 2.80001 14.6 3.60001C15.5 4.90001 16.9 5.60001 18.5 5.60001C19 5.50001 19.7 5.5 20.5 4.8Z" fill="#0968AC"/>
<path d="M21.5 21.7C21.6 21.7 21.6 21.6 21.7 21.5C22.2 20.8 22.7 20.1 23.2 19.3C23.3 19.2 23.4 19.1 23.5 19.1C23.8 19.1 24.1 19.1 24.5 19.1C24.6 19.1 24.6 19.1 24.7 19.1C24.7 19.2 24.7 19.2 24.6 19.3C23.9 20.3 23.1 21.3 22.4 22.3C22.1 22.7 21.9 23.1 21.8 23.5C21.8 23.7 21.7 23.8 21.4 23.8C21.2 23.8 20.9 23.8 20.6 23.8C20.4 23.8 20.4 23.7 20.5 23.6C20.7 23 20.7 22.5 20.5 21.9C20.4 21.6 20.4 21.4 20.3 21.1C20.3 21 20.3 20.9 20.4 20.9C20.7 20.9 21 20.9 21.3 20.9C21.4 20.9 21.5 21 21.5 21.1C21.4 21.3 21.4 21.5 21.5 21.7Z" fill="#171E2B"/>
<path d="M19.3 19.8C19.7 19.8 20.1 19.8 20.5 19.8C21 19.8 21.3 20.2 21.3 20.7C21.3 20.8 21.2 20.8 21.1 20.8C20.4 20.8 19.8 20.8 19.1 20.8C18.8 20.8 18.8 20.7 18.7 21.1C18.5 21.9 18.3 22.8 18.2 23.6C18.2 23.8 18.1 23.9 17.9 23.8C17.7 23.8 17.5 23.8 17.3 23.8C17 23.8 17 23.8 17.1 23.5C17.3 22.8 17.4 22 17.6 21.3C17.7 20.9 17.8 20.4 17.9 20C17.9 19.8 18 19.8 18.2 19.8C18.5 19.8 18.9 19.8 19.3 19.8Z" fill="#171E2B"/>
<path d="M0.899986 25.5C0.799986 25.5 0.599992 25.5 0.499992 25.5C0.399992 25.5 0.299986 25.5 0.399986 25.4C0.499986 25.2 0.499999 24.9 0.599999 24.6C0.599999 24.5 0.699996 24.5 0.799996 24.5C1.3 24.5 1.5 24.3 1.6 23.8C1.7 23.5 1.7 23.1 1.8 22.8C1.9 22.3 2 21.8 2.1 21.2C2.1 21.1 2.2 21 2.3 21C2.6 21 2.8 21 3.1 21C3.2 21 3.29999 21 3.19999 21.2C2.99999 22.3 2.79999 23.4 2.49999 24.4C2.49999 24.5 2.49999 24.5 2.39999 24.6C2.09999 25.3 1.8 25.5 1.1 25.5C0.999999 25.5 0.999986 25.5 0.899986 25.5Z" fill="#171E2B"/>
<path d="M2.7 20.7C2.6 20.7 2.4 20.7 2.3 20.7C2.2 20.7 2.2 20.7 2.2 20.6C2.3 20.4 2.29999 20.1 2.39999 19.9C2.39999 19.8 2.50001 19.8 2.60001 19.8C2.90001 19.8 3.19999 19.8 3.39999 19.8C3.49999 19.8 3.6 19.9 3.5 20C3.4 20.2 3.39999 20.4 3.39999 20.7C3.39999 20.8 3.3 20.9 3.2 20.9C3 20.7 2.9 20.7 2.7 20.7Z" fill="#171E2B"/>
<path d="M20.6 12.1C20.7 12.2 20.7 12.1 20.6 12.1C20.6 12.2 20.6 12.2 20.6 12.1Z" fill="#0968AC"/>
</svg>
