<svg width="29" height="29" viewBox="0 0 29 29" fill="none" xmlns="http://www.w3.org/2000/svg">
<path d="M0 10.7C0 7.2 1.2219e-05 5.4 0.700012 4C1.30001 2.8 2.3 1.8 3.5 1.2C4.9 0.499997 6.60001 0.5 10.2 0.5H17.9C21.4 0.5 23.2 0.499997 24.6 1.2C25.8 1.8 26.8 2.8 27.4 4C28.1 5.4 28.1 7.1 28.1 10.7V18.4C28.1 21.9 28.1 23.7 27.4 25.1C26.8 26.3 25.8 27.3 24.6 27.9C23.2 28.6 21.5 28.6 17.9 28.6H10.2C6.70001 28.6 4.9 28.6 3.5 27.9C2.3 27.3 1.30001 26.3 0.700012 25.1C1.2219e-05 23.7 0 22 0 18.4V10.7Z" fill="#00005B"/>
<path d="M6 20.4V7.8C6 7.7 6.00001 7.7 6.10001 7.7C7.30001 7.7 8.50001 7.6 9.70001 7.6C11.7 7.6 13.8 8.3 14.5 10.4C14.7 10.9 14.8 11.4 14.8 12C14.8 13.1 14.6 13.9 14.1 14.6C12.8 16.5 10.5 16.5 8.5 16.5V20.4C8.5 20.5 8.39999 20.6 8.29999 20.6H6.10001C6.00001 20.6 6 20.5 6 20.4ZM8.60001 10V14.1C9.40001 14.2 10.2 14.2 11 13.9C11.9 13.6 12.3 12.9 12.3 12C12.3 11.2 11.9 10.5 11.2 10.2C10.4 9.9 9.40001 9.9 8.60001 10Z" fill="#9999FF"/>
<path d="M16.4 10.8H18.5C18.6 10.8 18.7 10.9 18.7 11C18.8 11.3 18.9 11.8 18.9 12.1C19.3 11.7 19.7 11.3 20.2 11C20.7 10.7 21.3 10.5 21.9 10.6C22 10.6 22.1 10.7 22.1 10.8V13.2C22.1 13.3 22 13.3 21.9 13.3C21 13.2 19.7 13.5 19 14.2V20.4C19 20.5 19 20.6 18.8 20.6H16.6C16.5 20.6 16.4 20.5 16.4 20.4V13.7C16.4 12.8 16.4 11.9 16.3 11C16.3 10.9 16.4 10.8 16.4 10.8Z" fill="#9999FF"/>
</svg>
