<svg width="31" height="27" viewBox="0 0 31 27" fill="none" xmlns="http://www.w3.org/2000/svg">
<path d="M18.2 13.3C18.2 11.9 17 10.7 15.5 10.7C14 10.7 12.8 11.9 12.8 13.3C12.8 14.7 14 15.9 15.5 15.9C17 15.9 18.2 14.7 18.2 13.3Z" fill="#1E94AF"/>
<path fill-rule="evenodd" clip-rule="evenodd" d="M24.3 8.5C24.9 6.3 25.6 2.1 23.1 0.699999C20.6 -0.7 17.4 2.00001 15.6 3.60001C13.9 2.00001 10.6 -0.699994 8 0.800006C5.5 2.20001 6.30002 6.3 6.90002 8.5C4.60002 9.1 0.599976 10.5 0.599976 13.3C0.599976 16.1 4.60002 17.6 6.90002 18.3C6.30002 20.6 5.59998 24.6 8.09998 26C10.6 27.4 13.9 24.8 15.7 23.2C17.4 24.8 20.6 27.4 23.1 26C25.6 24.6 25 20.5 24.4 18.3C26.6 17.7 30.6 16.2 30.6 13.4C30.6 10.5 26.5 9.1 24.3 8.5ZM24 17C23.6 15.8 23.1 14.6 22.5 13.3C23.1 12.1 23.6 10.8 24 9.7C25.7 10.2 29.4 11.3 29.4 13.3C29.3 15.4 25.7 16.5 24 17ZM22.4 24.8C20.5 25.8 17.8 23.3 16.5 22.2C17.3 21.3 18.2 20.3 19 19.1C20.5 19 21.8 18.8 23.1 18.5C23.5 20.1 24.3 23.8 22.4 24.8ZM8.70001 24.8C6.80001 23.8 7.69998 20.2 8.09998 18.5C9.29998 18.8 10.7 19 12.1 19.1C12.9 20.2 13.8 21.3 14.7 22.2C13.6 23.2 10.6 25.9 8.70001 24.8ZM1.79999 13.3C1.79999 11.2 5.50001 10.1 7.20001 9.7C7.60001 10.9 8.10001 12.1 8.70001 13.4C8.10001 14.7 7.60001 15.9 7.20001 17.1C5.60001 16.6 1.79999 15.4 1.79999 13.3ZM8.70001 1.80001C10.6 0.800006 13.5 3.3 14.7 4.5C13.8 5.4 13 6.40001 12.1 7.60001C10.7 7.70001 9.29998 7.9 8.09998 8.2C7.59998 6.3 6.80001 2.90001 8.70001 1.80001ZM19.9 8.9C20.9 9 21.8 9.2 22.6 9.4C22.3 10.2 22 11 21.6 11.9C21.2 10.8 20.6 9.8 19.9 8.9ZM15.6 5.30001C16.2 5.90001 16.8 6.6 17.4 7.4C16.2 7.3 15 7.3 13.9 7.4C14.4 6.7 15 6.00001 15.6 5.30001ZM9.40002 11.8C9.00002 10.9 8.70002 10.1 8.40002 9.30001C9.30002 9.10001 10.2 9.00001 11.1 8.80001C10.5 9.80001 10 10.8 9.40002 11.8ZM11.2 17.8C10.2 17.7 9.30002 17.5 8.40002 17.4C8.70002 16.6 9.00002 15.7 9.40002 14.8C10 15.8 10.6 16.8 11.2 17.8ZM15.6 21.3C15 20.7 14.4 20 13.8 19.2C15 19.2 16.2 19.2 17.4 19.2C16.8 20 16.2 20.7 15.6 21.3ZM21.7 14.7C22.1 15.6 22.4 16.4 22.7 17.3C21.8 17.5 20.9 17.6 19.9 17.8C20.6 16.8 21.2 15.8 21.7 14.7ZM18.3 17.9C16.5 18 14.7 18 12.8 17.9C11.8 16.4 10.8 14.9 10.1 13.3C10.9 11.7 11.8 10.2 12.8 8.7C14.6 8.6 16.5 8.6 18.3 8.7C19.3 10.2 20.2 11.7 21 13.3C20.2 14.9 19.3 16.4 18.3 17.9ZM22.4 1.80001C24.3 2.80001 23.4 6.6 23 8.2C21.8 7.9 20.4 7.70001 19 7.60001C18.2 6.50001 17.3 5.4 16.5 4.5C17.7 3.3 20.5 0.700006 22.4 1.80001Z" fill="#1E94AF"/>
</svg>
