<svg width="29" height="29" viewBox="0 0 29 29" fill="none" xmlns="http://www.w3.org/2000/svg">
<path d="M21.1 1.2C21.1 0.299997 20.1 0.299994 19.7 0.399994C20.3 -0.100006 21 -2.84612e-06 21.3 0.199997L27.2 3.10001C27.8 3.40001 28.1 4.00001 28.1 4.60001V23.7C28.1 24.3 27.7 24.9 27.2 25.2L21.6 27.8C21.2 28 20.4 28.4 19.7 27.8C20.6 28 21 27.3 21.1 26.9V1.2Z" fill="url(#paint0_linear_1_172)"/>
<path d="M19.7 0.399996C20.2 0.299996 21.1 0.399999 21.1 1.2V7.8L3.1 21.3C2.8 21.5 2.3 21.5 2.1 21.2L0.299982 19.2C-1.83135e-05 18.9 -1.83135e-05 18.4 0.299982 18.1L19.7 0.399996Z" fill="url(#paint1_linear_1_172)"/>
<path d="M21.1 20.5L3.1 6.89999C2.8 6.69999 2.3 6.7 2.1 7L0.299982 9C-1.83135e-05 9.3 -1.83135e-05 9.8 0.299982 10.1L19.6 27.8C20.5 28 20.9 27.3 21 26.9V20.5H21.1Z" fill="url(#paint2_linear_1_172)"/>
<defs>
<linearGradient id="paint0_linear_1_172" x1="23.8652" y1="0.121596" x2="23.8652" y2="28.1218" gradientUnits="userSpaceOnUse">
<stop stop-color="#32B5F1"/>
<stop offset="1" stop-color="#2B9FED"/>
</linearGradient>
<linearGradient id="paint1_linear_1_172" x1="20.9819" y1="3.6041" x2="1.00189" y2="20.375" gradientUnits="userSpaceOnUse">
<stop stop-color="#0F6FB3"/>
<stop offset="0.2706" stop-color="#1279B7"/>
<stop offset="0.4214" stop-color="#1176B5"/>
<stop offset="0.6182" stop-color="#0E69AC"/>
<stop offset="0.8553" stop-color="#0F70AF"/>
<stop offset="1" stop-color="#0F6DAD"/>
</linearGradient>
<linearGradient id="paint2_linear_1_172" x1="1.07038" y1="8.23709" x2="20.9944" y2="24.7341" gradientUnits="userSpaceOnUse">
<stop stop-color="#1791D2"/>
<stop offset="1" stop-color="#1173C5"/>
</linearGradient>
</defs>
</svg>
